# xmcd
#
# Track frame offsets:
#	150
#	25286
#	45131
#	52810
#	69206
#	87314
#	114750
#	131775
#	151945
#	170454
#	192959
#	225152
#	244656
#	278037
#	304840
#
# Disc length: 4306 seconds
#
# Revision: 1
# Processed by: cddbd v1.5.2PL0 Copyright (c) Steve Scherf et al.
# Submitted via: audiograbber 1.83.01
#
DISCID=ae10d00f
DTITLE=diverse - Sra Bua
DYEAR=2013
DGENRE=Lounge
TTITLE0=The Boogiesoulmates - I put a spell on you
TTITLE1=Slackwax - Sexbomb
TTITLE2=Can 7 - B-Mary
TTITLE3=Mousse T. - C-Movie
TTITLE4=Slackwax - Such A Shame
TTITLE5=Mouse T. - Gourmet De Funk (Boozoo Bajou's Homemade Soulfood Cooking Le
TTITLE5=ssons)
TTITLE6=Mop Mop - Loa Chant
TTITLE7=Slackwax - Horny
TTITLE8=Mop Mop - Kamakumba feat. Sara Sayed
TTITLE9=Mo´Horizons - Morning Bay
TTITLE10=Rodney Hunter - T.B.A. International
TTITLE11=Slackwax - Happy Soul
TTITLE12=Boris Dlugosch feat. Roisin Murphy - Never Enough (Drop Out Orchestra 
TTITLE12=Vocal Remix)
TTITLE13=Mousse T. - Theme Of Cool
TTITLE14=Roachford - Imagine (Live)
EXTD=2013 - Music handpicked by Mousse T.\nPeppermint Jam GmbH\nBoulevard der E
EXTD=U 8\n30539 Hannover
EXTT0=
EXTT1=
EXTT2=
EXTT3=
EXTT4=
EXTT5=
EXTT6=
EXTT7=
EXTT8=
EXTT9=
EXTT10=
EXTT11=
EXTT12=
EXTT13=
EXTT14=
PLAYORDER=
